<mxfile host="app.diagrams.net" modified="2023-03-03T13:30:02.936Z" agent="5.0 (Macintosh; Intel Mac OS X 10_15_7) AppleWebKit/537.36 (KHTML, like Gecko) Chrome/110.0.0.0 Safari/537.36" etag="FX3CglcgLWIRu_ok9GYu" version="20.8.23" type="github">
  <diagram name="Страница 1" id="BOJsoSEfQLmtbxHjsDLz">
    <mxGraphModel dx="1247" dy="655" grid="1" gridSize="10" guides="1" tooltips="1" connect="1" arrows="1" fold="1" page="1" pageScale="1" pageWidth="1169" pageHeight="827" math="0" shadow="0">
      <root>
        <mxCell id="0" />
        <mxCell id="1" parent="0" />
        <mxCell id="nKu6EM1XER9Ci5rSMsAZ-1" value="Смарт-контракт &quot;Деревья&quot;" style="swimlane;whiteSpace=wrap;html=1;" vertex="1" parent="1">
          <mxGeometry x="210" y="200" width="700" height="730" as="geometry" />
        </mxCell>
        <mxCell id="nKu6EM1XER9Ci5rSMsAZ-3" value="Лотерея" style="swimlane;whiteSpace=wrap;html=1;startSize=20;" vertex="1" parent="nKu6EM1XER9Ci5rSMsAZ-1">
          <mxGeometry x="20" y="40" width="140" height="310" as="geometry" />
        </mxCell>
        <mxCell id="nKu6EM1XER9Ci5rSMsAZ-4" value="createLottery" style="rounded=0;whiteSpace=wrap;html=1;" vertex="1" parent="nKu6EM1XER9Ci5rSMsAZ-3">
          <mxGeometry x="10" y="30" width="120" height="40" as="geometry" />
        </mxCell>
        <mxCell id="nKu6EM1XER9Ci5rSMsAZ-5" value="purchaseTicket" style="rounded=0;whiteSpace=wrap;html=1;" vertex="1" parent="nKu6EM1XER9Ci5rSMsAZ-3">
          <mxGeometry x="10" y="80" width="120" height="40" as="geometry" />
        </mxCell>
        <mxCell id="nKu6EM1XER9Ci5rSMsAZ-6" value="selectWinner" style="rounded=0;whiteSpace=wrap;html=1;" vertex="1" parent="nKu6EM1XER9Ci5rSMsAZ-3">
          <mxGeometry x="10" y="130" width="120" height="40" as="geometry" />
        </mxCell>
        <mxCell id="nKu6EM1XER9Ci5rSMsAZ-15" value="Стекинг" style="swimlane;whiteSpace=wrap;html=1;startSize=20;" vertex="1" parent="nKu6EM1XER9Ci5rSMsAZ-1">
          <mxGeometry x="190" y="40" width="140" height="180" as="geometry" />
        </mxCell>
        <mxCell id="nKu6EM1XER9Ci5rSMsAZ-16" value="createLottery" style="rounded=0;whiteSpace=wrap;html=1;" vertex="1" parent="nKu6EM1XER9Ci5rSMsAZ-15">
          <mxGeometry x="10" y="30" width="120" height="40" as="geometry" />
        </mxCell>
        <mxCell id="nKu6EM1XER9Ci5rSMsAZ-17" value="purchaseTicket" style="rounded=0;whiteSpace=wrap;html=1;" vertex="1" parent="nKu6EM1XER9Ci5rSMsAZ-15">
          <mxGeometry x="10" y="80" width="120" height="40" as="geometry" />
        </mxCell>
        <mxCell id="nKu6EM1XER9Ci5rSMsAZ-18" value="selectWinner" style="rounded=0;whiteSpace=wrap;html=1;" vertex="1" parent="nKu6EM1XER9Ci5rSMsAZ-15">
          <mxGeometry x="10" y="130" width="120" height="40" as="geometry" />
        </mxCell>
        <mxCell id="nKu6EM1XER9Ci5rSMsAZ-38" value="&lt;p style=&quot;margin:0px;margin-top:4px;text-align:center;&quot;&gt;&lt;b&gt;Лотерея&lt;/b&gt;&lt;/p&gt;&lt;hr size=&quot;1&quot;&gt;&lt;p style=&quot;margin:0px;margin-left:4px;&quot;&gt;lotteryIds&lt;/p&gt;&lt;hr size=&quot;1&quot;&gt;&lt;p style=&quot;margin:0px;margin-left:4px;&quot;&gt;+ createLottery&lt;/p&gt;&lt;p style=&quot;margin:0px;margin-left:4px;&quot;&gt;+ purchaseTicket&lt;br&gt;&lt;/p&gt;&lt;p style=&quot;margin:0px;margin-left:4px;&quot;&gt;- selectWinner&lt;br&gt;&lt;/p&gt;" style="verticalAlign=top;align=left;overflow=fill;fontSize=12;fontFamily=Helvetica;html=1;" vertex="1" parent="nKu6EM1XER9Ci5rSMsAZ-1">
          <mxGeometry x="40" y="390" width="140" height="110" as="geometry" />
        </mxCell>
        <mxCell id="nKu6EM1XER9Ci5rSMsAZ-7" value="Стейкинг" style="swimlane;whiteSpace=wrap;html=1;" vertex="1" parent="1">
          <mxGeometry x="1060" y="210" width="180" height="300" as="geometry" />
        </mxCell>
        <mxCell id="nKu6EM1XER9Ci5rSMsAZ-8" value="stake" style="rounded=0;whiteSpace=wrap;html=1;" vertex="1" parent="nKu6EM1XER9Ci5rSMsAZ-7">
          <mxGeometry x="30" y="50" width="120" height="60" as="geometry" />
        </mxCell>
        <mxCell id="nKu6EM1XER9Ci5rSMsAZ-9" value="unstake" style="rounded=0;whiteSpace=wrap;html=1;" vertex="1" parent="nKu6EM1XER9Ci5rSMsAZ-7">
          <mxGeometry x="30" y="130" width="120" height="60" as="geometry" />
        </mxCell>
        <mxCell id="nKu6EM1XER9Ci5rSMsAZ-10" value="mintReward" style="rounded=0;whiteSpace=wrap;html=1;" vertex="1" parent="nKu6EM1XER9Ci5rSMsAZ-7">
          <mxGeometry x="30" y="210" width="120" height="60" as="geometry" />
        </mxCell>
        <mxCell id="nKu6EM1XER9Ci5rSMsAZ-11" value="Переводы" style="swimlane;whiteSpace=wrap;html=1;" vertex="1" parent="1">
          <mxGeometry x="1280" y="210" width="180" height="300" as="geometry" />
        </mxCell>
        <mxCell id="nKu6EM1XER9Ci5rSMsAZ-12" value="approve()" style="rounded=0;whiteSpace=wrap;html=1;" vertex="1" parent="nKu6EM1XER9Ci5rSMsAZ-11">
          <mxGeometry x="30" y="50" width="120" height="60" as="geometry" />
        </mxCell>
        <mxCell id="nKu6EM1XER9Ci5rSMsAZ-13" value="transferFrom" style="rounded=0;whiteSpace=wrap;html=1;" vertex="1" parent="nKu6EM1XER9Ci5rSMsAZ-11">
          <mxGeometry x="30" y="130" width="120" height="60" as="geometry" />
        </mxCell>
        <mxCell id="nKu6EM1XER9Ci5rSMsAZ-14" value="transfer" style="rounded=0;whiteSpace=wrap;html=1;" vertex="1" parent="nKu6EM1XER9Ci5rSMsAZ-11">
          <mxGeometry x="30" y="210" width="120" height="60" as="geometry" />
        </mxCell>
        <mxCell id="nKu6EM1XER9Ci5rSMsAZ-39" value="Деревья" style="rounded=0;whiteSpace=wrap;html=1;" vertex="1" parent="1">
          <mxGeometry x="880" y="1150" width="120" height="40" as="geometry" />
        </mxCell>
        <mxCell id="nKu6EM1XER9Ci5rSMsAZ-40" value="Лотерея" style="swimlane;whiteSpace=wrap;html=1;startSize=20;" vertex="1" parent="1">
          <mxGeometry x="240" y="1170" width="140" height="190" as="geometry" />
        </mxCell>
        <mxCell id="nKu6EM1XER9Ci5rSMsAZ-41" value="createLottery" style="rounded=0;whiteSpace=wrap;html=1;" vertex="1" parent="nKu6EM1XER9Ci5rSMsAZ-40">
          <mxGeometry x="10" y="30" width="120" height="40" as="geometry" />
        </mxCell>
        <mxCell id="nKu6EM1XER9Ci5rSMsAZ-42" value="purchaseTicket" style="rounded=0;whiteSpace=wrap;html=1;" vertex="1" parent="nKu6EM1XER9Ci5rSMsAZ-40">
          <mxGeometry x="10" y="80" width="120" height="40" as="geometry" />
        </mxCell>
        <mxCell id="nKu6EM1XER9Ci5rSMsAZ-43" value="selectWinner" style="rounded=0;whiteSpace=wrap;html=1;" vertex="1" parent="nKu6EM1XER9Ci5rSMsAZ-40">
          <mxGeometry x="10" y="130" width="120" height="40" as="geometry" />
        </mxCell>
        <mxCell id="nKu6EM1XER9Ci5rSMsAZ-44" value="Stake" style="swimlane;whiteSpace=wrap;html=1;startSize=20;" vertex="1" parent="1">
          <mxGeometry x="460" y="1170" width="140" height="190" as="geometry" />
        </mxCell>
        <mxCell id="nKu6EM1XER9Ci5rSMsAZ-45" value="createLottery" style="rounded=0;whiteSpace=wrap;html=1;" vertex="1" parent="nKu6EM1XER9Ci5rSMsAZ-44">
          <mxGeometry x="10" y="30" width="120" height="40" as="geometry" />
        </mxCell>
        <mxCell id="nKu6EM1XER9Ci5rSMsAZ-46" value="purchaseTicket" style="rounded=0;whiteSpace=wrap;html=1;" vertex="1" parent="nKu6EM1XER9Ci5rSMsAZ-44">
          <mxGeometry x="10" y="80" width="120" height="40" as="geometry" />
        </mxCell>
        <mxCell id="nKu6EM1XER9Ci5rSMsAZ-47" value="selectWinner" style="rounded=0;whiteSpace=wrap;html=1;" vertex="1" parent="nKu6EM1XER9Ci5rSMsAZ-44">
          <mxGeometry x="10" y="130" width="120" height="40" as="geometry" />
        </mxCell>
        <mxCell id="nKu6EM1XER9Ci5rSMsAZ-49" value="Токен PLANT" style="rounded=0;whiteSpace=wrap;html=1;" vertex="1" parent="1">
          <mxGeometry x="880" y="1221" width="120" height="40" as="geometry" />
        </mxCell>
        <mxCell id="nKu6EM1XER9Ci5rSMsAZ-50" value="Токен TREE" style="rounded=0;whiteSpace=wrap;html=1;" vertex="1" parent="1">
          <mxGeometry x="880" y="1280" width="120" height="40" as="geometry" />
        </mxCell>
        <mxCell id="nKu6EM1XER9Ci5rSMsAZ-51" value="Форвадер и Харвестер" style="rounded=0;whiteSpace=wrap;html=1;" vertex="1" parent="1">
          <mxGeometry x="1090" y="1150" width="120" height="40" as="geometry" />
        </mxCell>
        <mxCell id="nKu6EM1XER9Ci5rSMsAZ-52" value="Лесовоз" style="rounded=0;whiteSpace=wrap;html=1;" vertex="1" parent="1">
          <mxGeometry x="1090" y="1220" width="120" height="40" as="geometry" />
        </mxCell>
        <mxCell id="nKu6EM1XER9Ci5rSMsAZ-53" value="Завод" style="rounded=0;whiteSpace=wrap;html=1;" vertex="1" parent="1">
          <mxGeometry x="1090" y="1290" width="120" height="40" as="geometry" />
        </mxCell>
        <mxCell id="nKu6EM1XER9Ci5rSMsAZ-54" value="Чертеж завода" style="rounded=0;whiteSpace=wrap;html=1;" vertex="1" parent="1">
          <mxGeometry x="1090" y="1360" width="120" height="40" as="geometry" />
        </mxCell>
        <mxCell id="nKu6EM1XER9Ci5rSMsAZ-55" value="Синдикат" style="rounded=0;whiteSpace=wrap;html=1;" vertex="1" parent="1">
          <mxGeometry x="1090" y="1430" width="120" height="40" as="geometry" />
        </mxCell>
      </root>
    </mxGraphModel>
  </diagram>
</mxfile>
